<?xml version="1.0" encoding="utf-8"?>
<!-- created with bpmn-js / http://bpmn.io -->
<!DOCTYPE svg PUBLIC "-//W3C//DTD SVG 1.1//EN" "http://www.w3.org/Graphics/SVG/1.1/DTD/svg11.dtd">
<svg xmlns="http://www.w3.org/2000/svg" xmlns:xlink="http://www.w3.org/1999/xlink" width="926" height="532" viewBox="150 74 926 532" version="1.1"><defs><marker id="sequenceflow-end-white-black-cizbezeg91k592vans5uptiyj" viewBox="0 0 20 20" refX="11" refY="10" markerWidth="10" markerHeight="10" orient="auto"><path d="M 1 5 L 11 10 L 1 15 Z" style="fill: black; stroke-width: 1px; stroke-linecap: round; stroke-dasharray: 10000px, 1px; stroke: black;"/></marker></defs><g class="djs-group"><g class="djs-element djs-shape" data-element-id="Participant_0576tcw" transform="matrix(1, 0, 0, 1, 156, 80)" style="display: block;"><g class="djs-visual"><rect x="0" y="0" width="914" height="520" rx="0" ry="0" style="stroke: black; stroke-width: 2px; fill: white; fill-opacity: 0.95;"/><polyline points="30,0 30,520 " style="fill: none; stroke: black; stroke-width: 2px;"/><text style="font-family: Arial, sans-serif; font-size: 12px; font-weight: normal; fill: black;" lineHeight="1.2" class="djs-label" transform="matrix(-1.83697e-16, -1, 1, -1.83697e-16, 0, 520)"><tspan x="222" y="18.6">Struktur PerIS</tspan></text></g><rect x="-6" y="-6" width="926" height="532" style="fill: none;" class="djs-outline"/><rect style="fill: none; stroke-opacity: 0; stroke: white; stroke-width: 15px;" class="djs-hit djs-hit-click-stroke" x="0" y="0" width="914" height="520"/><rect style="fill: none; stroke-opacity: 0; stroke: white; stroke-width: 15px;" class="djs-hit djs-hit-all" x="0" y="0" width="30" height="520"/></g><g class="djs-children"><g class="djs-group"><g class="djs-element djs-shape" data-element-id="TextAnnotation_12h18uk" transform="matrix(1, 0, 0, 1, 430, 300)" style="display: block;"><g class="djs-visual"><rect x="0" y="0" width="160" height="127" rx="0" ry="0" style="stroke: none; stroke-width: 2px; fill: none;"/><path d="m 0, 0 m 10,0 l -10,0 l 0,127 l 10,0" style="fill: none; stroke-width: 2px; stroke: black;"/><text style="font-family: Arial, sans-serif; font-size: 12px; font-weight: normal; fill: black;" lineHeight="1.2" class="djs-label"><tspan x="5" y="15.799999999999999">z.B. Ausschreibung, </tspan><tspan x="5" y="30.199999999999996">Bewerber-Grunddaten, </tspan><tspan x="5" y="44.599999999999994">Bewerbungsprozess, </tspan><tspan x="5" y="58.99999999999999">Grunddaten, </tspan><tspan x="5" y="73.39999999999999">Ausbildungsdaten, </tspan><tspan x="5" y="87.79999999999998">Beschäftigungs-/ </tspan><tspan x="5" y="102.19999999999999">Dienstverhältnis, </tspan><tspan x="5" y="116.6">Abwesenheiten...</tspan></text></g><rect style="fill: none; stroke-opacity: 0; stroke: white; stroke-width: 15px;" class="djs-hit djs-hit-all" x="0" y="0" width="160" height="127"/><rect x="-6" y="-6" width="172" height="139" style="fill: none;" class="djs-outline"/></g></g><g class="djs-group"><g class="djs-element djs-shape" data-element-id="TextAnnotation_11gxosf" transform="matrix(1, 0, 0, 1, 650, 400)" style="display: block;"><g class="djs-visual"><rect x="0" y="0" width="160" height="70" rx="0" ry="0" style="stroke: none; stroke-width: 2px; fill: none;"/><path d="m 0, 0 m 10,0 l -10,0 l 0,70 l 10,0" style="fill: none; stroke-width: 2px; stroke: black;"/><text style="font-family: Arial, sans-serif; font-size: 12px; font-weight: normal; fill: black;" lineHeight="1.2" class="djs-label"><tspan x="5" y="15.799999999999999">z.B. Beamte, Beschäftigte,</tspan><tspan x="5" y="30.199999999999996">Azubis, Duales Studium, </tspan><tspan x="5" y="44.599999999999994">Urlaub, BEM, sonstige </tspan><tspan x="5" y="58.99999999999999">Anwesenheiten...</tspan></text></g><rect style="fill: none; stroke-opacity: 0; stroke: white; stroke-width: 15px;" class="djs-hit djs-hit-all" x="0" y="0" width="160" height="70"/><rect x="-6" y="-6" width="172" height="82" style="fill: none;" class="djs-outline"/></g></g><g class="djs-group"><g class="djs-element djs-shape" data-element-id="TextAnnotation_14jknbk" transform="matrix(1, 0, 0, 1, 890, 470)" style="display: block;"><g class="djs-visual"><rect x="0" y="0" width="160" height="98" rx="0" ry="0" style="stroke: none; stroke-width: 2px; fill: none;"/><path d="m 0, 0 m 10,0 l -10,0 l 0,98 l 10,0" style="fill: none; stroke-width: 2px; stroke: black;"/><text style="font-family: Arial, sans-serif; font-size: 12px; font-weight: normal; fill: black;" lineHeight="1.2" class="djs-label"><tspan x="5" y="15.799999999999999">z.B. Ausschreibung, </tspan><tspan x="5" y="30.199999999999996">Bewerber Grunddaten, </tspan><tspan x="5" y="44.599999999999994">ZBB AB Personaldaten, </tspan><tspan x="5" y="58.99999999999999">ZBB AB Arbeitszeit, </tspan><tspan x="5" y="73.39999999999999">Hauptfunktion, </tspan><tspan x="5" y="87.79999999999998">Burteilungen Beamte...</tspan></text></g><rect style="fill: none; stroke-opacity: 0; stroke: white; stroke-width: 15px;" class="djs-hit djs-hit-all" x="0" y="0" width="160" height="98"/><rect x="-6" y="-6" width="172" height="110" style="fill: none;" class="djs-outline"/></g></g><g class="djs-group"><g class="djs-element djs-shape" data-element-id="TextAnnotation_0pq5pxv" transform="matrix(1, 0, 0, 1, 210, 210)" style="display: block;"><g class="djs-visual"><rect x="0" y="0" width="160" height="113" rx="0" ry="0" style="stroke: none; stroke-width: 2px; fill: none;"/><path d="m 0, 0 m 10,0 l -10,0 l 0,113 l 10,0" style="fill: none; stroke-width: 2px; stroke: black;"/><text style="font-family: Arial, sans-serif; font-size: 12px; font-weight: normal; fill: black;" lineHeight="1.2" class="djs-label"><tspan x="5" y="15.799999999999999">Siehe: </tspan><tspan x="5" y="30.199999999999996">1.1PL_Gesamtübersicht1 </tspan><tspan x="5" y="44.599999999999994">- Bewerberverwaltung         </tspan><tspan x="5" y="58.99999999999999">- Personalverwaltung         </tspan><tspan x="5" y="73.39999999999999">- Stellenverwaltung          </tspan><tspan x="5" y="87.79999999999998">- Dienstpostenverwaltung</tspan></text></g><rect style="fill: none; stroke-opacity: 0; stroke: white; stroke-width: 15px;" class="djs-hit djs-hit-all" x="0" y="0" width="160" height="113"/><rect x="-6" y="-6" width="172" height="125" style="fill: none;" class="djs-outline"/></g></g><g class="djs-group"><g class="djs-element djs-connection" data-element-id="Flow_12oyoyx" style="display: block;"><g class="djs-visual"><path d="m  750,300L940,300 L940,340 " style="fill: none; stroke-width: 2px; stroke: black; stroke-linejoin: round; marker-end: url('#sequenceflow-end-white-black-cizbezeg91k592vans5uptiyj');"/></g><polyline points="750,300 940,300 940,340 " style="fill: none; stroke-opacity: 0; stroke: white; stroke-width: 15px;" class="djs-hit djs-hit-stroke"/><rect x="744" y="294" width="202" height="52" style="fill: none;" class="djs-outline"/></g></g><g class="djs-group"><g class="djs-element djs-connection" data-element-id="Flow_0yhkore" style="display: block;"><g class="djs-visual"><path d="m  530,220L700,220 L700,260 " style="fill: none; stroke-width: 2px; stroke: black; stroke-linejoin: round; marker-end: url('#sequenceflow-end-white-black-cizbezeg91k592vans5uptiyj');"/></g><polyline points="530,220 700,220 700,260 " style="fill: none; stroke-opacity: 0; stroke: white; stroke-width: 15px;" class="djs-hit djs-hit-stroke"/><rect x="524" y="214" width="182" height="52" style="fill: none;" class="djs-outline"/></g></g><g class="djs-group"><g class="djs-element djs-connection" data-element-id="Flow_1bijg6v" style="display: block;"><g class="djs-visual"><path d="m  310,140L480,140 L480,180 " style="fill: none; stroke-width: 2px; stroke: black; stroke-linejoin: round; marker-end: url('#sequenceflow-end-white-black-cizbezeg91k592vans5uptiyj');"/></g><polyline points="310,140 480,140 480,180 " style="fill: none; stroke-opacity: 0; stroke: white; stroke-width: 15px;" class="djs-hit djs-hit-stroke"/><rect x="304" y="134" width="182" height="52" style="fill: none;" class="djs-outline"/></g></g><g class="djs-group"><g class="djs-element djs-shape" data-element-id="Activity_1e53tjr" transform="matrix(1, 0, 0, 1, 210, 100)" style="display: block;"><g class="djs-visual"><rect x="0" y="0" width="100" height="80" rx="10" ry="10" style="stroke: black; stroke-width: 2px; fill: white; fill-opacity: 0.95;"/><text style="font-family: Arial, sans-serif; font-size: 12px; font-weight: normal; fill: black;" lineHeight="1.2" class="djs-label"><tspan x="24.5" y="43.599999999999994">1 Module</tspan></text></g><rect style="fill: none; stroke-opacity: 0; stroke: white; stroke-width: 15px;" class="djs-hit djs-hit-all" x="0" y="0" width="100" height="80"/><rect x="-6" y="-6" width="112" height="92" style="fill: none;" class="djs-outline"/></g></g><g class="djs-group"><g class="djs-element djs-shape" data-element-id="Activity_18y9doi" transform="matrix(1, 0, 0, 1, 430, 180)" style="display: block;"><g class="djs-visual"><rect x="0" y="0" width="100" height="80" rx="10" ry="10" style="stroke: black; stroke-width: 2px; fill: white; fill-opacity: 0.95;"/><text style="font-family: Arial, sans-serif; font-size: 12px; font-weight: normal; fill: black;" lineHeight="1.2" class="djs-label"><tspan x="25.5" y="43.599999999999994">3 Ordner</tspan></text></g><rect style="fill: none; stroke-opacity: 0; stroke: white; stroke-width: 15px;" class="djs-hit djs-hit-all" x="0" y="0" width="100" height="80"/><rect x="-6" y="-6" width="112" height="92" style="fill: none;" class="djs-outline"/></g></g><g class="djs-group"><g class="djs-element djs-shape" data-element-id="Activity_11vqtb0" transform="matrix(1, 0, 0, 1, 650, 260)" style="display: block;"><g class="djs-visual"><rect x="0" y="0" width="100" height="80" rx="10" ry="10" style="stroke: black; stroke-width: 2px; fill: white; fill-opacity: 0.95;"/><text style="font-family: Arial, sans-serif; font-size: 12px; font-weight: normal; fill: black;" lineHeight="1.2" class="djs-label"><tspan x="11.5" y="43.599999999999994">4 Unterordner</tspan></text></g><rect style="fill: none; stroke-opacity: 0; stroke: white; stroke-width: 15px;" class="djs-hit djs-hit-all" x="0" y="0" width="100" height="80"/><rect x="-6" y="-6" width="112" height="92" style="fill: none;" class="djs-outline"/></g></g><g class="djs-group"><g class="djs-element djs-shape" data-element-id="Activity_1b5ky61" transform="matrix(1, 0, 0, 1, 890, 340)" style="display: block;"><g class="djs-visual"><rect x="0" y="0" width="100" height="80" rx="10" ry="10" style="stroke: black; stroke-width: 2px; fill: white; fill-opacity: 0.95;"/><text style="font-family: Arial, sans-serif; font-size: 12px; font-weight: normal; fill: black;" lineHeight="1.2" class="djs-label"><tspan x="46" y="36.4">5 </tspan><tspan x="10" y="50.8">Geschäftsfälle</tspan></text></g><rect style="fill: none; stroke-opacity: 0; stroke: white; stroke-width: 15px;" class="djs-hit djs-hit-all" x="0" y="0" width="100" height="80"/><rect x="-6" y="-6" width="112" height="92" style="fill: none;" class="djs-outline"/></g></g><g class="djs-group"><g class="djs-element djs-connection" data-element-id="Association_15sqfcb" style="display: block;"><g class="djs-visual"><polyline points="480,260 480,300 " style="fill: none; stroke: black; stroke-width: 2px; stroke-dasharray: 0.5px, 5px; stroke-linecap: round; stroke-linejoin: round;"/></g><polyline points="480,260 480,300 " style="fill: none; stroke-opacity: 0; stroke: white; stroke-width: 15px;" class="djs-hit djs-hit-stroke"/><rect x="474" y="254" width="12" height="52" style="fill: none;" class="djs-outline"/></g></g><g class="djs-group"><g class="djs-element djs-connection" data-element-id="Association_0r0wrbs" style="display: block;"><g class="djs-visual"><polyline points="700,340 700,400 " style="fill: none; stroke: black; stroke-width: 2px; stroke-dasharray: 0.5px, 5px; stroke-linecap: round; stroke-linejoin: round;"/></g><polyline points="700,340 700,400 " style="fill: none; stroke-opacity: 0; stroke: white; stroke-width: 15px;" class="djs-hit djs-hit-stroke"/><rect x="694" y="334" width="12" height="72" style="fill: none;" class="djs-outline"/></g></g><g class="djs-group"><g class="djs-element djs-connection" data-element-id="Association_0vhhwhv" style="display: block;"><g class="djs-visual"><polyline points="940,420 940,470 " style="fill: none; stroke: black; stroke-width: 2px; stroke-dasharray: 0.5px, 5px; stroke-linecap: round; stroke-linejoin: round;"/></g><polyline points="940,420 940,470 " style="fill: none; stroke-opacity: 0; stroke: white; stroke-width: 15px;" class="djs-hit djs-hit-stroke"/><rect x="934" y="414" width="12" height="62" style="fill: none;" class="djs-outline"/></g></g><g class="djs-group"><g class="djs-element djs-connection" data-element-id="Association_10pabez" style="display: block;"><g class="djs-visual"><polyline points="260,180 260,210 " style="fill: none; stroke: black; stroke-width: 2px; stroke-dasharray: 0.5px, 5px; stroke-linecap: round; stroke-linejoin: round;"/></g><polyline points="260,180 260,210 " style="fill: none; stroke-opacity: 0; stroke: white; stroke-width: 15px;" class="djs-hit djs-hit-stroke"/><rect x="254" y="174" width="12" height="42" style="fill: none;" class="djs-outline"/></g></g></g></g></svg>